<?xml version="1.0" standalone="no"?>
<!DOCTYPE svg PUBLIC "-//W3C//DTD SVG 20010904//EN"
 "http://www.w3.org/TR/2001/REC-SVG-20010904/DTD/svg10.dtd">
<svg version="1.0" xmlns="http://www.w3.org/2000/svg"
 width="720.000000pt" height="720.000000pt" viewBox="0 0 720.000000 720.000000"
 preserveAspectRatio="xMidYMid meet">
<metadata>
Created by potrace 1.16, written by Peter Selinger 2001-2019
</metadata>
<g transform="translate(0.000000,720.000000) scale(0.100000,-0.100000)"
fill="#000000" stroke="none">
<path d="M3440 6470 c-89 -8 -154 -22 -205 -45 -56 -25 -130 -43 -224 -56 -69
-9 -110 -21 -155 -44 -155 -81 -169 -90 -261 -180 -28 -27 -77 -74 -108 -102
-30 -29 -81 -83 -112 -120 -70 -86 -65 -78 -98 -143 -16 -30 -32 -62 -37 -70
-22 -36 -53 -111 -80 -190 -63 -189 -64 -198 -64 -440 0 -222 13 -497 21 -473
4 10 8 9 19 -2 12 -11 13 -19 3 -36 -7 -15 -8 -19 0 -15 7 5 11 -6 11 -33 0
-25 5 -41 12 -41 9 0 9 -3 0 -12 -16 -16 -16 -72 0 -62 6 4 8 3 4 -4 -3 -6 -1
-23 5 -39 6 -15 12 -39 14 -53 2 -14 6 -36 11 -50 7 -25 7 -25 -14 -6 -16 13
-22 31 -23 60 0 32 -2 37 -9 21 -9 -22 -10 -20 -16 45 -2 25 -11 64 -20 88
-10 27 -14 55 -10 78 14 74 -17 19 -34 -61 -5 -22 -34 -134 -65 -250 -57 -215
-84 -330 -103 -445 -44 -254 -44 -260 -41 -545 3 -198 0 -311 -10 -385 -15
-117 -9 -348 11 -435 16 -66 15 -168 -1 -285 -9 -63 -12 -146 -8 -245 3 -83 1
-158 -4 -167 -24 -43 -55 -187 -63 -292 -3 -43 -8 -81 -12 -85 -3 -3 -81 -16
-172 -27 -92 -12 -203 -31 -247 -43 -112 -30 -260 -44 -395 -36 -115 7 -272
-6 -294 -24 -6 -5 -28 -12 -49 -16 -21 -4 -41 -14 -44 -21 -3 -8 -13 -14 -22
-14 -10 0 -26 -9 -38 -19 -11 -10 -33 -26 -49 -34 -16 -9 -43 -29 -59 -45 -34
-32 -156 -112 -172 -112 -5 0 -23 -7 -39 -15 -16 -8 -57 -17 -89 -20 -33 -4
-70 -8 -82 -11 l-23 -4 0 -455 0 -455 3310 0 3310 0 -36 73 c-19 39 -41 83
-49 97 -55 104 -75 147 -75 166 0 24 43 48 71 39 21 -7 203 -358 192 -369 -4
-3 102 -6 235 -6 l242 0 0 945 c0 520 -1 945 -3 945 -2 0 -26 -7 -53 -15 -95
-28 -235 -48 -644 -90 -302 -32 -378 -37 -498 -30 -140 8 -122 -5 -207 145
-94 167 -166 305 -205 393 -9 23 -29 68 -44 99 -14 31 -26 63 -26 71 0 18 -35
59 -44 50 -3 -3 -6 -1 -6 5 0 5 -3 17 -6 26 -10 26 10 18 28 -11 14 -22 18
-24 18 -10 0 10 4 16 9 13 11 -7 24 97 16 126 -11 37 -75 200 -93 237 -13 27
-18 31 -21 16 -2 -11 1 -21 6 -22 5 -2 8 -18 6 -36 -4 -25 -2 -29 6 -17 9 13
11 13 11 -2 0 -9 7 -24 16 -32 8 -9 11 -16 5 -16 -6 0 -11 -8 -12 -17 0 -14
-2 -15 -6 -3 -4 8 -14 20 -23 27 -10 7 -23 39 -31 72 -10 49 -16 58 -26 49 -8
-6 -12 -17 -9 -25 3 -7 2 -13 -3 -13 -5 0 -9 -6 -8 -12 1 -43 -4 -78 -13 -78
-5 0 -10 13 -10 30 0 22 -4 28 -15 24 -10 -4 -15 0 -15 14 0 12 4 23 8 26 9 5
8 31 -4 109 -5 32 -3 47 5 47 6 0 11 -9 11 -20 0 -11 5 -20 11 -20 6 0 9 9 6
20 -6 22 8 28 16 8 3 -7 6 -4 6 7 1 12 -4 26 -11 33 -7 7 -8 12 -2 12 21 0 31
-17 29 -45 -1 -16 -3 -40 -3 -53 -1 -13 -6 -20 -12 -17 -6 4 -10 -6 -9 -22 0
-28 0 -28 10 -4 7 19 12 21 24 11 18 -15 36 -5 28 16 -5 12 -7 13 -14 3 -15
-26 -18 -2 -7 58 6 34 7 69 3 79 -12 26 -14 54 -4 54 4 0 10 -6 12 -12 3 -7 6
-1 6 15 1 30 30 39 32 10 2 -36 19 44 20 95 2 36 6 52 16 52 19 0 42 52 25 58
-14 4 -16 32 -2 32 9 0 14 -14 24 -70 2 -14 4 3 3 38 0 36 5 68 11 74 7 7 12
22 12 34 0 13 5 26 10 29 6 3 10 11 10 16 0 6 -4 7 -10 4 -6 -4 -10 7 -10 26
0 31 1 32 15 13 8 -10 15 -14 16 -9 1 6 2 15 4 20 1 6 3 27 3 48 1 21 6 36 11
33 5 -4 12 29 16 71 4 43 12 84 17 91 7 8 7 12 -1 12 -7 0 -9 5 -6 10 4 6 8
46 10 89 1 43 8 87 14 99 22 41 14 387 -14 601 -13 106 -29 207 -34 225 -6 17
-16 58 -24 91 -19 79 -52 168 -80 213 -13 20 -40 75 -61 122 -37 80 -112 219
-125 230 -3 3 -26 32 -51 64 -25 33 -56 71 -70 85 -14 14 -51 60 -82 101 -102
137 -178 202 -314 267 -42 20 -78 43 -81 50 -3 8 -23 23 -44 34 -22 11 -39 24
-39 29 0 6 -6 10 -12 10 -20 0 -104 45 -146 79 -137 108 -424 196 -737 226
-163 16 -169 16 -295 5z m273 -182 c19 5 47 7 63 5 16 -3 43 -6 61 -7 17 -1
35 -4 38 -8 4 -4 13 -4 21 -1 8 3 14 -1 14 -10 0 -9 5 -19 12 -23 8 -5 9 -2 5
9 -4 11 -1 17 9 17 8 0 13 -4 10 -9 -3 -5 12 -11 34 -15 24 -4 39 -11 37 -19
-1 -7 8 -11 26 -9 18 2 27 -1 27 -11 0 -10 7 -13 21 -10 18 5 20 3 14 -16 -6
-21 4 -25 53 -24 6 1 12 -7 12 -17 0 -13 8 -18 28 -19 53 -1 62 -2 62 -11 0
-4 -6 -11 -12 -13 -10 -4 -10 -6 -1 -6 6 -1 15 4 18 9 10 16 38 12 32 -4 -3
-8 1 -17 9 -20 8 -3 14 -1 14 4 0 6 11 5 25 -2 14 -6 25 -20 25 -30 0 -11 4
-17 9 -14 12 8 42 -4 37 -13 -3 -4 9 -13 25 -20 16 -7 29 -19 29 -27 0 -8 4
-13 8 -11 10 3 121 -109 182 -183 25 -30 55 -66 67 -80 13 -14 23 -28 23 -31
0 -4 18 -34 40 -67 22 -33 40 -65 40 -72 0 -6 18 -48 40 -92 22 -44 37 -84 34
-89 -3 -5 -2 -15 3 -21 20 -32 42 -117 43 -161 0 -30 4 -46 10 -42 6 3 10 -4
10 -17 0 -13 3 -34 7 -47 5 -19 3 -22 -8 -16 -11 6 -12 5 -1 -6 17 -18 15 -32
-3 -25 -9 3 -15 0 -15 -9 0 -8 5 -15 10 -15 15 0 12 -30 -2 -31 -10 0 -10 -2
0 -6 6 -2 9 -9 6 -14 -3 -6 0 -16 6 -24 6 -8 9 -19 6 -24 -4 -5 -2 -12 4 -16
5 -3 7 -25 3 -50 -3 -24 -2 -69 2 -100 5 -47 9 -54 21 -44 11 9 14 7 14 -10 0
-13 -6 -21 -17 -21 -14 0 -15 -2 -4 -9 7 -5 11 -13 7 -19 -3 -6 -1 -12 6 -14
18 -6 18 -360 1 -365 -10 -4 -10 -10 -2 -24 8 -15 6 -21 -6 -25 -9 -4 -14 -13
-10 -22 3 -8 -6 -30 -20 -48 -17 -23 -24 -41 -20 -54 4 -12 2 -20 -5 -20 -8 0
-10 -10 -8 -25 6 -29 -16 -35 -27 -7 -7 15 -9 13 -15 -8 -4 -17 -13 -24 -26
-23 -10 1 -13 0 -6 -3 17 -8 15 -34 -3 -34 -8 0 -15 -7 -15 -15 0 -8 7 -15 16
-15 14 0 14 -3 4 -15 -7 -8 -19 -15 -27 -15 -10 0 -13 -6 -9 -15 3 -9 0 -18
-7 -21 -16 -6 -20 -71 -6 -80 7 -4 -1 -12 -20 -20 -25 -11 -31 -19 -31 -44 0
-16 -4 -30 -10 -30 -5 0 -10 -6 -10 -12 0 -17 -46 -38 -82 -38 -29 0 -38 -14
-15 -23 6 -3 4 -6 -7 -6 -19 -1 -19 -1 0 -22 19 -21 18 -21 -4 -39 -12 -10
-22 -24 -22 -30 0 -10 -3 -10 -15 0 -13 11 -15 8 -15 -19 0 -17 -5 -31 -11
-31 -7 0 -9 11 -5 30 3 17 1 30 -4 30 -6 0 -10 -19 -10 -42 0 -32 -3 -39 -10
-28 -5 8 -10 27 -10 43 0 18 -5 27 -16 27 -12 0 -15 -7 -12 -25 4 -19 -2 -30
-29 -51 -26 -19 -37 -23 -47 -15 -10 8 -16 8 -25 -3 -9 -10 -24 -13 -49 -9
-54 8 -67 18 -70 50 -1 15 -9 33 -18 38 -47 29 -49 33 -20 28 l28 -6 -17 26
c-14 21 -21 25 -35 17 -24 -13 -40 -13 -20 0 19 12 9 20 -29 23 -17 1 -31 5
-31 8 0 3 -12 11 -26 17 -14 7 -22 17 -19 22 10 17 -13 38 -38 35 -12 -1 -32
-3 -44 -4 -33 -2 -28 -21 5 -22 19 -1 21 -3 8 -6 -10 -3 -28 0 -40 6 -11 6
-41 15 -66 20 -25 5 -54 12 -65 16 -14 5 -16 4 -6 -3 7 -5 11 -16 8 -23 -3 -9
-10 -2 -18 19 -8 17 -19 32 -26 32 -7 0 -10 -7 -6 -17 5 -13 2 -15 -11 -10
-10 4 -22 7 -27 7 -6 0 -8 4 -4 9 3 5 1 12 -5 16 -5 3 -10 -1 -10 -9 0 -8 -8
-17 -17 -20 -11 -3 -9 -4 6 -3 13 1 26 -4 29 -11 3 -9 -4 -11 -25 -6 -15 4
-32 11 -38 15 -15 14 -25 10 -18 -7 5 -14 1 -16 -20 -12 -15 3 -27 5 -27 4 0
-1 4 -16 9 -34 6 -20 6 -32 0 -32 -5 0 -9 7 -9 16 0 12 -7 14 -32 9 -41 -9
-40 -8 -32 -29 5 -13 9 -14 14 -6 5 8 10 9 14 2 9 -15 -32 -26 -47 -13 -16 13
-58 10 -54 -4 2 -5 13 -11 25 -13 32 -5 27 -23 -4 -20 -20 2 -27 -2 -30 -15
-4 -27 -14 -34 -24 -17 -10 16 -12 15 -27 -20 l-12 -25 0 28 c-1 31 -21 28
-21 -4 0 -14 -7 -19 -29 -19 -16 0 -31 5 -33 11 -2 6 -15 1 -31 -11 -21 -17
-27 -18 -27 -6 0 8 -16 23 -36 32 -24 12 -31 19 -23 25 10 6 9 16 -6 48 -10
23 -15 44 -12 48 4 3 7 1 7 -5 0 -7 7 -12 16 -12 13 0 14 3 4 15 -12 15 -6 35
11 35 5 0 9 -8 10 -17 0 -11 3 -13 6 -5 2 6 11 12 19 12 8 0 14 9 14 20 0 15
7 20 28 21 16 1 20 3 10 6 -10 2 -18 9 -18 14 0 15 58 10 92 -7 16 -9 27 -11
24 -6 -8 13 32 42 56 42 10 0 18 7 18 18 0 14 2 15 10 2 8 -12 11 -13 19 -1
12 18 110 18 122 0 6 -10 9 -11 9 -1 0 7 14 12 35 12 21 0 34 -5 33 -12 -2 -7
22 -12 72 -15 66 -3 79 -1 100 17 22 19 67 29 56 11 -3 -4 6 -6 21 -3 18 3 24
1 19 -7 -4 -6 -1 -11 9 -11 9 0 13 5 10 10 -3 6 0 10 9 10 8 0 17 -6 19 -12 4
-10 8 -10 15 1 15 21 71 8 157 -34 49 -24 81 -35 94 -30 15 4 28 -1 45 -19 13
-14 28 -26 34 -26 5 0 13 -7 16 -16 3 -8 11 -12 17 -8 8 5 6 10 -5 16 -9 5
-16 15 -16 22 0 7 -9 17 -20 22 -14 7 -17 13 -10 24 8 13 10 13 10 -2 0 -21
34 -32 57 -19 16 9 15 10 -7 11 -15 0 -20 3 -13 8 15 9 -3 92 -20 92 -6 0 -18
7 -27 15 -9 8 -32 17 -51 19 -19 2 -37 4 -40 5 -13 2 -61 52 -56 58 4 3 -7 17
-23 31 -17 15 -30 34 -30 43 0 29 -36 52 -75 47 -31 -4 -35 -1 -35 19 0 17 -6
23 -22 24 -69 5 -90 8 -101 17 -7 5 -23 9 -37 7 -14 -1 -35 -3 -47 -4 -16 -1
-21 -6 -17 -16 7 -18 -7 -20 -23 -4 -7 7 -20 9 -30 5 -14 -6 -15 -9 -3 -16 12
-7 12 -11 0 -25 -7 -9 -22 -14 -32 -12 -10 3 -29 -3 -42 -14 -31 -24 -36 -24
-36 3 0 20 -1 20 -23 -5 -23 -27 -47 -36 -47 -17 0 6 7 10 15 10 8 0 15 5 15
10 0 6 -5 10 -11 10 -14 0 -60 -36 -54 -42 3 -3 -8 -15 -25 -28 -16 -13 -30
-32 -30 -42 0 -11 -4 -17 -8 -14 -5 3 -19 -8 -31 -24 -16 -22 -30 -30 -52 -30
-17 0 -28 4 -25 9 3 5 -3 11 -15 14 -16 4 -18 3 -9 -8 10 -12 6 -13 -23 -8
-20 3 -44 0 -58 -8 -13 -7 -27 -12 -31 -11 -4 1 -5 -5 -2 -13 5 -11 2 -13 -12
-8 -12 5 -15 3 -9 -6 4 -8 2 -17 -6 -21 -10 -7 -10 -11 0 -24 13 -16 11 -18
-18 -20 -16 -1 -36 -46 -20 -46 13 0 6 -25 -7 -25 -5 -1 -18 -4 -29 -7 -58
-18 -75 -18 -75 -3 0 18 -31 20 -49 3 -11 -11 -13 -10 -9 2 2 8 14 19 26 25
28 12 29 29 2 20 -15 -5 -20 -2 -21 12 0 15 -2 14 -9 -4 -5 -13 -12 -23 -16
-23 -7 0 0 43 11 72 5 12 2 15 -12 12 -19 -5 -43 33 -43 68 0 10 -4 18 -10 18
-5 0 -7 7 -3 16 4 10 -1 17 -16 21 -12 3 -21 13 -21 25 0 14 -5 18 -16 14 -8
-3 -13 -2 -9 3 7 13 -5 42 -16 35 -5 -3 -9 0 -9 5 0 6 -7 11 -16 11 -12 0 -15
6 -10 25 4 14 2 25 -4 25 -5 0 -10 -4 -10 -10 0 -5 -4 -10 -8 -10 -4 0 -6 15
-4 33 2 22 -2 38 -12 46 -9 8 -16 20 -16 27 0 8 -3 14 -8 14 -4 0 -13 13 -20
29 -15 33 -42 48 -54 29 -4 -7 -8 -8 -8 -2 0 5 5 15 12 22 9 9 8 12 -4 12 -20
0 -30 34 -14 50 8 10 5 11 -16 6 -22 -5 -25 -3 -21 14 6 24 0 25 -21 5 -13
-13 -14 -10 -10 29 4 38 3 44 -13 42 -18 -1 -20 6 -8 36 5 13 2 15 -12 12 -13
-4 -19 0 -20 13 0 10 -6 51 -13 92 -10 61 -10 75 2 82 10 8 10 11 -4 20 -10 5
-18 15 -18 20 0 6 4 8 9 4 18 -10 23 16 7 34 -20 22 -20 31 0 31 10 0 14 6 11
15 -4 8 -2 17 3 20 6 4 10 1 10 -6 0 -10 3 -10 12 -1 8 8 8 15 -1 26 -14 16
-6 40 10 31 5 -4 15 -3 21 1 9 6 5 10 -11 14 -14 3 -26 11 -29 18 -2 8 2 10
14 5 25 -10 13 20 -14 32 -23 10 -30 25 -12 25 6 0 10 5 10 11 0 6 -7 8 -15 5
-12 -4 -15 0 -14 17 1 12 1 38 0 57 -2 29 -4 32 -11 15 -5 -11 -9 -18 -10 -15
-15 52 -21 160 -9 182 6 12 6 18 -1 18 -5 0 -10 7 -10 15 0 8 3 15 8 15 4 0 7
15 8 33 1 58 15 147 22 143 4 -2 7 21 6 52 -1 32 3 60 9 64 6 3 11 32 12 63 1
31 6 60 11 63 5 4 9 13 10 20 1 6 2 19 3 27 0 8 8 15 17 15 10 0 14 6 10 15
-3 8 -1 15 3 15 5 0 18 16 30 35 11 19 28 35 37 35 10 0 14 5 11 14 -4 9 8 23
29 38 18 12 34 26 34 31 0 4 7 7 15 7 8 0 15 4 15 8 0 13 36 52 46 52 5 0 21
13 34 28 14 16 37 35 50 42 14 7 29 19 33 26 4 8 16 14 25 14 9 0 23 9 30 20
7 11 20 20 30 20 10 0 26 6 37 14 11 7 38 19 60 27 41 13 48 15 76 17 9 1 19
11 22 22 4 14 14 20 36 20 17 0 34 7 39 16 5 9 15 14 23 12 8 -3 19 2 25 10 6
8 16 12 23 8 9 -6 9 -11 0 -22 -9 -11 -8 -14 5 -14 9 0 17 5 17 10 1 6 2 16 3
23 1 7 12 11 29 9 15 -2 27 1 27 6 0 5 9 12 20 15 15 4 22 -1 26 -19 9 -36 26
-29 22 9 -3 31 -2 32 42 35 25 2 49 7 54 12 6 6 14 5 22 -1 8 -7 24 -7 47 -1z
m137 -2940 c0 -10 5 -18 10 -18 6 0 10 7 10 15 0 8 5 15 10 15 6 0 10 -4 10
-9 0 -6 8 -10 18 -11 55 -4 89 -3 102 1 10 2 15 -2 14 -13 -1 -10 2 -18 6 -18
5 0 11 8 13 18 4 14 6 14 12 -5 4 -13 11 -20 16 -17 5 3 7 11 3 17 -3 7 4 0
16 -15 12 -16 27 -25 35 -21 10 3 15 -2 15 -16 0 -14 6 -21 20 -21 11 0 20 -4
20 -10 0 -5 9 -10 20 -10 14 0 20 -6 18 -17 -2 -11 5 -19 17 -21 24 -5 67 -51
62 -66 -2 -6 -11 -10 -20 -10 -9 1 -13 -4 -10 -12 3 -8 17 -14 32 -15 24 -1
23 -2 -8 -11 -23 -6 -37 -6 -44 1 -6 6 -15 11 -20 11 -11 0 16 -27 34 -33 8
-2 1 -3 -15 -1 -16 2 -44 4 -62 4 -24 0 -34 5 -34 15 0 8 -7 15 -15 15 -9 0
-18 7 -21 15 -4 8 -17 15 -30 15 -13 0 -24 5 -24 11 0 6 -7 9 -15 5 -8 -3 -18
1 -22 8 -5 8 -28 19 -53 25 l-45 10 60 -4 c39 -3 51 -1 35 4 -24 8 -23 8 10
12 19 3 0 5 -44 6 -54 0 -81 5 -87 14 -6 10 -9 11 -9 2 0 -7 -7 -13 -15 -13
-8 0 -15 8 -15 17 0 13 -3 14 -12 5 -7 -7 -29 -12 -50 -12 -27 0 -38 -4 -38
-15 0 -11 -11 -15 -39 -15 -27 0 -41 -5 -45 -16 -5 -13 -3 -14 6 -6 15 12 138
22 138 12 0 -4 -26 -11 -57 -15 -32 -4 -62 -11 -68 -15 -5 -4 -37 -13 -70 -20
-33 -7 -65 -15 -72 -17 -7 -3 -13 -1 -13 5 0 6 23 16 50 23 28 7 50 16 50 19
0 15 -14 19 -27 8 -10 -8 -17 -8 -25 0 -9 9 -7 16 8 27 13 10 14 13 3 10 -13
-5 -15 0 -11 24 2 17 8 28 14 25 5 -3 16 -3 25 0 12 5 13 9 3 22 -7 8 -19 13
-27 10 -8 -4 -11 -1 -7 5 3 6 15 9 25 6 11 -3 29 5 44 19 15 13 30 22 34 20 8
-6 63 28 57 35 -2 2 18 4 45 4 40 0 49 -3 49 -17z m1629 -1227 c28 -49 51 -93
51 -98 0 -5 9 -28 20 -51 11 -22 20 -45 20 -49 0 -5 17 -38 39 -75 49 -84 40
-99 -33 -57 -28 17 -74 41 -103 54 -31 15 -59 37 -71 57 -12 18 -43 54 -71 80
-48 45 -49 48 -38 77 6 17 14 31 18 31 3 0 28 27 54 60 26 33 51 60 55 60 4 0
31 -40 59 -89z m-2894 -1237 c46 -19 39 -27 -28 -35 l-52 -6 62 -2 c34 0 68
-4 77 -7 29 -11 7 -22 -33 -17 -22 3 -48 0 -62 -8 -13 -7 -59 -14 -102 -15
-71 -2 -81 -5 -127 -38 -28 -20 -53 -36 -57 -36 -4 0 -43 -18 -88 -40 -90 -44
-112 -70 -140 -166 -20 -67 -41 -116 -68 -157 -15 -21 -16 -31 -7 -42 6 -7 10
-36 8 -67 -3 -50 -4 -51 -16 -28 -12 24 -12 24 -6 -8 3 -20 2 -32 -5 -32 -6 0
-11 9 -11 21 0 11 -4 18 -9 14 -19 -11 -38 109 -21 130 6 8 11 35 9 60 -1 25
-2 69 -3 98 l-1 53 -68 1 c-48 0 -73 5 -86 17 -24 21 -43 20 -72 -5 -40 -35
-36 1 4 38 40 36 72 42 103 18 12 -9 43 -14 89 -15 64 0 75 3 123 35 29 19 80
59 115 90 67 60 82 70 167 111 111 54 232 69 305 38z m1433 -303 c7 -4 24 -48
37 -97 41 -153 62 -228 74 -257 12 -31 5 -55 -11 -39 -5 5 -27 8 -48 5 l-37
-5 -51 158 c-27 88 -53 169 -57 182 -13 44 51 80 93 53z"/>
<path d="M3360 5503 c0 -23 -23 -32 -34 -14 -3 5 -24 9 -47 9 -31 1 -39 -2
-35 -14 7 -17 -5 -18 -23 -1 -11 10 -14 10 -18 0 -3 -7 -18 -13 -34 -13 -16 0
-29 -5 -29 -11 0 -6 -6 -9 -14 -6 -8 3 -20 -1 -27 -9 -9 -11 -26 -14 -65 -10
-38 3 -56 0 -65 -10 -6 -8 -21 -14 -33 -15 -19 -1 -18 -2 4 -8 30 -8 12 -24
-23 -20 -30 3 -96 -11 -103 -22 -3 -5 -9 -7 -14 -4 -5 3 -11 1 -15 -5 -4 -6 9
-9 34 -8 65 2 58 -9 -10 -17 -35 -4 -69 -14 -77 -21 -11 -12 -10 -14 7 -14 12
0 21 4 21 9 0 5 11 8 26 7 19 -1 24 -5 20 -20 -4 -14 -2 -16 6 -8 6 6 25 9 42
6 24 -4 28 -3 16 5 -8 6 -23 11 -33 11 -10 0 -16 4 -12 10 3 5 13 6 22 3 8 -3
34 -7 57 -7 27 -1 40 -5 38 -13 -1 -7 2 -13 7 -13 5 0 11 6 14 13 3 7 9 2 15
-13 6 -14 11 -19 11 -12 1 9 8 11 22 7 14 -5 19 -3 15 3 -4 6 2 8 14 5 11 -3
20 -12 20 -20 0 -23 25 -9 28 15 6 40 19 14 15 -30 -3 -38 -2 -41 10 -25 15
18 37 23 37 7 0 -5 -8 -14 -17 -20 -16 -9 -15 -10 5 -5 16 5 22 2 22 -9 0 -9
5 -16 10 -16 6 0 10 -10 10 -22 -1 -21 -2 -22 -14 -5 -18 24 -23 22 -28 -13
-5 -34 6 -47 26 -31 10 8 17 7 26 -4 10 -13 9 -15 -9 -15 -11 0 -21 -4 -21
-10 0 -5 -9 -10 -20 -10 -11 0 -20 -4 -20 -10 0 -5 18 -10 41 -10 26 0 38 -4
33 -11 -3 -6 -17 -9 -30 -6 -16 3 -24 0 -24 -9 0 -8 8 -14 18 -15 9 0 12 -3 5
-5 -7 -3 -22 0 -34 6 -12 7 -19 8 -15 2 3 -6 2 -13 -4 -17 -6 -4 -8 -11 -5
-16 4 -5 -5 -9 -19 -9 -34 0 -77 -17 -103 -42 -13 -12 -23 -18 -23 -14 0 6
-28 -6 -80 -35 -39 -22 -85 -39 -105 -39 -13 0 -26 -8 -30 -17 -23 -53 -9 -75
39 -62 44 12 107 7 102 -7 -2 -6 1 -17 7 -23 9 -10 6 -11 -13 -6 -14 3 -36 7
-50 7 -14 1 -28 6 -31 11 -3 5 -9 0 -11 -11 -5 -17 -2 -20 19 -16 15 3 33 -2
43 -11 21 -19 176 -21 207 -2 6 4 18 4 27 1 9 -3 23 0 32 7 13 10 17 10 25 -2
6 -10 11 -11 17 -3 4 7 33 14 65 15 57 4 58 4 36 -13 -11 -10 -16 -18 -11 -18
19 0 62 23 62 33 0 5 7 7 15 3 9 -3 19 3 25 14 6 11 15 20 21 20 6 0 21 13 35
30 17 19 30 27 42 23 15 -6 15 -5 3 10 -9 11 -10 17 -2 17 6 0 11 6 11 14 0 8
7 17 16 20 8 3 13 10 9 15 -3 5 0 13 6 16 5 4 8 13 5 21 -5 12 4 18 24 16 9
-1 6 111 -3 125 -4 6 -4 18 -1 27 3 9 1 16 -5 16 -6 0 -11 5 -11 11 0 6 -11
20 -25 31 -14 11 -25 28 -25 39 0 29 -18 59 -35 59 -20 0 -19 17 3 29 10 6 12
11 4 11 -7 0 -10 5 -7 10 3 6 17 7 30 4 12 -3 26 -1 30 6 4 6 18 15 31 20 31
12 32 34 2 25 -17 -5 -19 -4 -9 3 19 13 8 65 -19 94 -11 12 -35 24 -53 26 -18
2 -40 13 -49 25 l-18 22 0 -22z"/>
<path d="M4337 5454 c-4 -4 -28 -7 -54 -7 -27 0 -56 -4 -67 -9 -12 -7 -26 -7
-40 0 -32 14 -68 -8 -72 -44 -2 -16 -10 -34 -19 -40 -20 -15 -19 -21 6 -27 15
-4 20 -11 15 -22 -3 -9 1 -23 9 -31 8 -9 15 -11 15 -5 0 6 5 11 10 11 6 0 10
-11 10 -24 0 -14 -4 -28 -10 -31 -5 -3 -10 -17 -10 -31 0 -14 -4 -22 -10 -19
-5 3 -10 15 -10 26 0 12 -5 19 -12 16 -7 -2 -12 -14 -10 -25 2 -13 -2 -22 -10
-22 -10 0 -14 -27 -16 -110 -2 -101 -1 -109 15 -103 15 5 16 3 6 -8 -20 -21
-15 -34 17 -46 18 -7 30 -18 30 -30 0 -14 -2 -15 -9 -4 -5 7 -15 11 -22 9 -10
-3 -6 -12 14 -30 15 -14 27 -30 27 -36 0 -6 18 -21 40 -33 22 -13 40 -26 40
-31 0 -11 49 -30 78 -30 12 0 22 -7 22 -14 0 -17 40 -18 73 -3 18 8 30 8 43 0
11 -6 14 -11 6 -11 -7 0 -10 -5 -7 -10 4 -6 13 -7 23 -2 9 5 53 6 97 3 44 -3
90 -5 103 -3 27 4 30 22 3 22 -29 0 -34 27 -5 33 13 2 24 -1 25 -7 0 -6 5 -1
11 12 13 26 19 27 59 7 27 -14 31 -14 50 4 23 21 18 41 -9 41 -15 0 -15 2 -2
10 12 8 11 10 -7 10 -13 0 -23 4 -23 10 0 5 -11 12 -25 16 -14 3 -25 10 -25
15 0 5 -7 9 -17 9 -9 0 -31 11 -49 25 -18 14 -37 25 -43 25 -6 0 -11 7 -11 15
0 9 -6 12 -16 8 -19 -7 -69 18 -53 27 7 5 5 9 -5 13 -9 4 -16 2 -16 -3 0 -6
-7 -10 -16 -10 -8 0 -13 4 -10 9 4 5 0 12 -6 14 -8 3 -6 6 5 6 9 1 17 5 17 10
0 5 3 17 7 27 5 13 3 16 -8 12 -10 -4 -15 1 -16 14 -1 11 -9 25 -18 32 -15 11
-14 13 9 24 15 6 26 20 26 31 0 10 10 26 23 34 19 14 20 18 7 27 -12 9 -11 10
8 5 15 -4 22 -2 22 8 0 20 25 25 119 21 49 -2 79 1 76 7 -4 5 6 9 22 9 22 0
25 2 13 10 -8 5 -26 10 -40 11 -14 0 -19 3 -12 6 20 8 14 31 -10 39 -13 4 -26
12 -30 18 -5 7 -8 6 -8 -3 0 -10 -6 -7 -18 7 -11 12 -37 24 -60 28 -23 4 -42
10 -42 13 0 10 -79 44 -110 49 -14 2 -32 10 -41 18 -16 14 -60 19 -72 8z"/>
<path d="M4083 4556 c4 -10 1 -13 -9 -9 -7 3 -14 0 -14 -6 0 -6 -7 -11 -15
-11 -18 0 -20 16 -2 24 6 3 3 5 -8 3 -11 -1 -20 -9 -20 -17 0 -9 -13 -17 -35
-21 -19 -4 -25 -7 -13 -8 18 -1 21 -6 18 -36 -2 -19 1 -37 6 -40 5 -4 9 0 10
7 1 23 28 -46 29 -74 0 -15 5 -30 10 -33 6 -3 10 -25 10 -49 0 -51 17 -77 53
-79 15 -1 27 -6 27 -12 0 -17 37 48 44 77 3 15 2 29 -3 33 -12 7 -1 78 13 87
8 5 7 8 -1 8 -7 0 -12 3 -12 8 3 20 -2 25 -12 12 -8 -12 -9 -10 -4 8 4 13 2
22 -4 22 -6 0 -11 5 -11 11 0 6 7 8 16 5 12 -5 15 -2 10 10 -3 8 -6 20 -6 25
0 5 -7 9 -15 9 -8 0 -15 8 -15 18 0 11 -12 24 -26 31 -22 10 -26 9 -21 -3z"/>
<path d="M3668 4519 c-7 -4 -6 -9 1 -13 6 -4 11 -2 11 3 0 6 6 11 13 11 6 0
-6 -16 -28 -36 -21 -20 -40 -44 -42 -53 -2 -17 -11 -90 -12 -104 -1 -5 -5 -6
-9 -3 -4 2 -9 -5 -9 -17 -2 -15 0 -18 6 -8 7 10 10 10 16 1 5 -8 -1 -20 -16
-31 -22 -17 -23 -19 -4 -19 15 0 17 -3 7 -9 -11 -7 -11 -9 2 -14 8 -3 18 -2
22 4 3 6 16 14 27 18 12 5 22 14 23 22 0 8 2 24 2 37 1 12 8 22 16 22 18 0 75
109 68 129 -3 8 0 11 6 7 6 -3 22 -2 37 4 20 7 26 16 23 33 -3 20 -8 22 -76
22 -41 0 -78 -3 -84 -6z"/>
</g>
</svg>
